<svg width="160" height="38" viewBox="0 0 160 38" fill="none" xmlns="http://www.w3.org/2000/svg">
<path fill-rule="evenodd" clip-rule="evenodd" d="M17.0868 10.2437C21.774 10.2437 25.9119 12.5982 28.3905 16.1926C26.0792 13.9175 22.9089 12.5179 19.4179 12.5179C12.34 12.5179 6.60062 18.2639 6.60062 25.3491C6.60062 30.9855 10.2314 35.7714 15.2765 37.4931C15.3274 37.5103 15.4576 37.5483 15.6301 37.5932C16.107 37.7176 16.8341 37.8402 16.9729 37.8799C16.8513 37.8687 16.3356 37.8263 15.8923 37.7495C15.5853 37.6968 15.3136 37.6208 15.2308 37.6096C8.52812 36.7056 3.3562 30.9475 3.3562 23.9858C3.3562 16.3989 9.50438 10.2437 17.0868 10.2437Z" fill="black"/>
<path fill-rule="evenodd" clip-rule="evenodd" d="M18.4221 18.4287C22.0477 18.4287 25.2145 20.4094 26.8971 23.3519C26.9134 23.3795 26.929 23.408 26.9445 23.4357C26.9635 23.4702 26.9669 23.4762 26.9824 23.5134C26.9919 23.535 27.0109 23.5885 27.0221 23.6075C26.979 23.5565 26.9462 23.4961 26.9022 23.446C26.8798 23.4201 26.8565 23.3942 26.8332 23.3692C25.2524 21.6208 22.9679 20.5242 20.4281 20.5242C15.6494 20.5242 11.7513 24.4044 11.7513 29.1877C11.7513 33.712 15.0207 37.4619 19.6493 37.8167C19.651 37.8167 20.0365 37.8495 20.0495 37.8452C19.9701 37.8737 19.6855 37.9065 19.6829 37.9065C19.2707 37.9609 18.8498 37.9877 18.4221 37.9877C13.0285 37.9877 8.65088 33.6102 8.65088 28.2104C8.65088 22.8105 13.0285 18.4287 18.4221 18.4287Z" fill="black"/>
<path fill-rule="evenodd" clip-rule="evenodd" d="M18.9982 0C29.4895 0 38.0412 8.50638 37.9999 18.9977C37.961 28.8899 30.6089 36.8869 21.1284 37.9368C20.6765 37.9877 20.0495 37.9912 19.7097 37.9912C19.6433 37.9912 19.2819 38.0015 19.006 37.9998C18.8007 37.9981 18.6653 37.9843 18.6144 37.9877C18.736 37.9791 19.6321 37.9394 19.7494 37.9281C21.714 37.7304 23.5863 37.2132 25.4146 36.3533C32.4925 33.0283 34.0577 27.5058 34.0577 21.3057C34.0577 12.0136 26.5245 4.4794 17.232 4.4794C7.94028 4.4794 0.406199 12.0136 0.406199 21.3057C0.406199 21.8626 0.523488 23.0938 0.559709 23.4582C0.565746 23.5143 0.550223 23.5454 0.55281 23.5549C0.526937 23.4443 0.49934 23.3381 0.471743 23.2173C0.164722 21.8608 0 20.45 0 18.9977C0 8.50638 8.50603 0 18.9982 0Z" fill="black"/>
<path fill-rule="evenodd" clip-rule="evenodd" d="M20.2314 37.8874C20.4668 37.8615 20.7057 37.8253 20.8006 37.8106C29.3549 36.506 36.1326 28.9381 36.1326 20.3912C36.1326 10.2193 28.0009 2.08936 18.0986 2.08936C8.59909 2.08936 0.287109 10.3246 0.287109 20.1693C0.287109 21.0569 0.360415 21.935 0.475979 22.7906C0.503576 22.965 0.533761 23.2551 0.54066 23.2871C0.538073 23.2595 0.539798 23.117 0.532898 23.0125C0.532036 23.0022 0.496677 22.0343 0.496677 21.41C0.496677 12.1982 7.95745 4.48015 17.1586 4.48015C26.3606 4.48015 34.1379 11.814 34.0447 21.6328C33.9662 30.0096 27.6551 36.721 19.6182 37.9099C19.5294 37.9237 18.999 37.9686 18.8231 37.9876C18.8989 37.9859 19.018 37.9833 19.0939 37.9807C19.2051 37.9764 19.3164 37.9712 19.3621 37.9695C19.4457 37.9652 19.5294 37.9591 19.613 37.9522C19.7131 37.9436 19.9744 37.9168 20.2314 37.8874Z" fill="black"/>
<mask id="mask0_8709_1111" style="mask-type:luminance" maskUnits="userSpaceOnUse" x="3" y="10" width="26" height="28">
<path fill-rule="evenodd" clip-rule="evenodd" d="M3.3562 23.9858C3.3562 28.6836 5.7106 32.8306 9.30171 35.3086C11.0757 36.3706 13.0377 37.152 15.1256 37.5889C15.255 37.607 15.3852 37.6234 15.5163 37.6381C15.625 37.6519 16.8099 37.8764 16.935 37.8721C16.8246 37.8756 15.6362 37.5932 15.531 37.5604C10.3564 35.913 6.60062 31.0779 6.60062 25.3491C6.60062 18.2648 12.34 12.5179 19.4179 12.5179C22.9089 12.5179 26.0783 13.9175 28.3905 16.1926C25.9119 12.5982 21.7731 10.2437 17.0868 10.2437C9.50438 10.2437 3.3562 16.3989 3.3562 23.9858Z" fill="white"/>
</mask>
<g mask="url(#mask0_8709_1111)">
<path fill-rule="evenodd" clip-rule="evenodd" d="M6.6006 25.3493C6.6006 18.2641 12.34 12.5181 19.4179 12.5181C21.9611 12.5181 24.3336 13.2615 26.3275 14.5436C26.5018 14.6559 26.6725 14.7716 26.8407 14.8925C26.9838 14.9935 27.1236 15.0979 27.2624 15.2059C27.4237 15.3302 27.5815 15.4606 27.7359 15.5927C27.9247 15.7541 28.2076 16.0158 28.3861 16.1876C28.318 16.1038 28.1636 15.9294 28.0955 15.8534C27.9963 15.7429 27.8971 15.6376 27.7945 15.5305C27.6574 15.3872 27.5039 15.2508 27.3607 15.1143C27.2253 14.984 27.0865 14.8571 26.945 14.7336C26.8053 14.6101 26.6622 14.4901 26.5164 14.3727C24.2517 12.5491 21.3747 11.4561 18.2424 11.4561C10.9455 11.4561 5.01807 17.3774 5.01807 24.6819C5.01807 30.4624 8.75923 35.3494 13.9268 37.147C14.6513 37.3991 15.3904 37.6227 16.1665 37.7454C16.3209 37.7713 16.5883 37.8248 16.8556 37.8645C16.3934 37.7592 15.4145 37.5347 15.2765 37.4881C15.2127 37.4656 15.1489 37.4492 15.0851 37.4259C10.1391 35.6498 6.6006 30.914 6.6006 25.3493Z" fill="black"/>
</g>
<mask id="mask1_8709_1111" style="mask-type:luminance" maskUnits="userSpaceOnUse" x="8" y="18" width="20" height="20">
<path fill-rule="evenodd" clip-rule="evenodd" d="M8.63428 28.2137C8.63428 33.0807 12.1892 37.1172 16.8419 37.8667C17.4387 37.9349 18.0441 37.9754 18.6564 37.9875C19.1308 37.9746 19.5818 37.9236 20.0415 37.8425C15.4215 37.6637 11.7562 33.863 11.7562 29.1919C11.7562 24.4069 15.6328 20.5275 20.4106 20.5275C23.0599 20.5275 25.4307 21.7199 27.0159 23.6004C25.3712 20.5223 22.1311 18.4312 18.4055 18.4312C13.011 18.4312 8.63428 22.813 8.63428 28.2137Z" fill="white"/>
</mask>
<g mask="url(#mask1_8709_1111)">
<path fill-rule="evenodd" clip-rule="evenodd" d="M19.4171 19.4771C14.3452 19.4771 10.2297 23.5964 10.2297 28.6733C10.2297 33.751 14.3452 37.8713 19.4171 37.8713C19.6387 37.8713 19.6154 37.8721 19.8517 37.8583C20.1613 37.8402 20.6822 37.7797 20.9806 37.7297C20.6719 37.7176 20.3726 37.6951 20.0734 37.6494C16.1649 37.0553 13.1689 33.6733 13.1689 29.5963C13.1689 25.0953 16.8117 21.4491 21.3075 21.4491C22.0319 21.4491 22.7339 21.5441 23.4023 21.7219C23.5239 21.7539 23.6438 21.7893 23.7628 21.8264C24.1828 21.9594 24.5881 22.126 24.9754 22.3229C25.3126 22.493 25.636 22.6872 25.9447 22.9022C26.1646 23.055 26.3759 23.2182 26.5795 23.3909C26.7683 23.5532 26.9503 23.7233 27.1245 23.9012C27.2616 24.0411 27.3936 24.1861 27.5195 24.3355C27.4358 24.1792 27.3013 24.0419 27.2159 23.8865C27.1607 23.7872 27.071 23.719 27.0253 23.6189C27.0132 23.5921 26.9831 23.5377 26.9667 23.5144C26.9451 23.485 26.9391 23.4773 26.9192 23.4479C26.8692 23.3728 26.8227 23.2985 26.7692 23.2269C26.6398 23.0516 26.5174 22.8798 26.3759 22.714C26.2138 22.524 26.0439 22.3341 25.8671 22.1571C25.711 22.0025 25.5549 21.8385 25.3876 21.6943C25.0073 21.3662 24.6218 21.0778 24.1914 20.8153C22.7995 19.9657 21.1661 19.4771 19.4171 19.4771Z" fill="black"/>
</g>
<path fill-rule="evenodd" clip-rule="evenodd" d="M103.706 13.5216C102.514 13.5216 101.523 13.9482 100.734 14.8013C99.9458 15.6545 99.5513 16.7483 99.5513 18.0828C99.5513 19.4272 99.9526 20.5327 100.755 21.4006C101.559 22.2674 102.546 22.7018 103.72 22.7018C104.931 22.7018 105.936 22.2752 106.734 21.4221C107.532 20.5689 107.931 19.4516 107.931 18.0682C107.931 16.7151 107.532 15.6193 106.734 14.7798C105.936 13.9413 104.926 13.5216 103.706 13.5216ZM107.761 4.66113H111.62V25.8765H107.761V24.2318C107.009 24.9568 106.253 25.4783 105.496 25.7973C104.738 26.1172 103.917 26.2767 103.033 26.2767C101.047 26.2767 99.3297 25.4969 97.8813 23.9383C96.4319 22.3807 95.7078 20.4425 95.7078 18.1257C95.7078 15.7238 96.4087 13.7553 97.8107 12.2202C99.2127 10.6861 100.915 9.91802 102.921 9.91802C103.842 9.91802 104.707 10.0951 105.517 10.4473C106.326 10.7995 107.074 11.3289 107.761 12.0343V4.66113Z" fill="black"/>
<path fill-rule="evenodd" clip-rule="evenodd" d="M97.8813 23.9384C96.4319 22.3808 95.7078 20.4426 95.7078 18.1258C95.7078 15.7238 96.4087 13.7553 97.8107 12.2202C101.215 15.9524 99.0078 15.2503 99.6667 19.3075C100.244 22.8637 100.65 21.8173 97.8813 23.9384Z" fill="black"/>
<path fill-rule="evenodd" clip-rule="evenodd" d="M122.321 11.8773C120.676 11.8773 119.262 12.4917 118.08 13.7216C116.898 14.9514 116.308 16.4385 116.308 18.183C116.308 19.3082 116.577 20.357 117.116 21.3285C117.654 22.301 118.382 23.0525 119.3 23.5818C120.217 24.1101 121.224 24.3743 122.321 24.3743C123.417 24.3743 124.423 24.1101 125.341 23.5818C126.258 23.0525 126.986 22.301 127.524 21.3285C128.064 20.357 128.333 19.3082 128.333 18.183C128.333 16.4385 127.74 14.9514 126.553 13.7216C125.366 12.4917 123.956 11.8773 122.321 11.8773ZM122.327 9.91846C124.696 9.91846 126.659 10.7853 128.217 12.521C129.632 14.103 130.34 15.9766 130.34 18.1399C130.34 20.3138 129.593 22.2129 128.096 23.839C126.6 25.4641 124.678 26.2771 122.327 26.2771C119.968 26.2771 118.04 25.4641 116.545 23.839C115.049 22.2129 114.302 20.3138 114.302 18.1399C114.302 15.9864 115.009 14.1177 116.425 12.5347C117.981 10.7902 119.95 9.91846 122.327 9.91846Z" fill="black"/>
<path fill-rule="evenodd" clip-rule="evenodd" d="M141.218 11.8483C139.507 11.8483 138.067 12.453 136.897 13.6623C135.726 14.8716 135.141 16.3763 135.141 18.1756C135.141 19.3565 135.402 20.419 135.924 21.3612C136.446 22.3044 137.193 23.0509 138.166 23.6037C139.138 24.1555 140.165 24.4314 141.246 24.4314C142.309 24.4314 143.306 24.1535 144.241 23.5968C145.177 23.0392 145.922 22.2613 146.477 21.2604C147.031 20.2615 147.308 19.2137 147.308 18.1188C147.308 17.0142 147.033 15.9664 146.484 14.9762C145.933 13.9871 145.194 13.2171 144.263 12.6692C143.333 12.1223 142.317 11.8483 141.218 11.8483ZM133.304 10.3191H135.283V13.178C136.063 12.0919 136.962 11.277 137.979 10.733C138.996 10.19 140.129 9.91797 141.381 9.91797C143.564 9.91797 145.432 10.7144 146.985 12.3062C148.538 13.8981 149.315 15.8137 149.315 18.0543C149.315 20.3427 148.545 22.2848 147.006 23.8815C145.468 25.4783 143.612 26.2766 141.438 26.2766C140.214 26.2766 139.089 26.0183 138.064 25.5037C137.038 24.9901 136.111 24.222 135.283 23.2016V31.5668H133.304V10.3191Z" fill="black"/>
<path fill-rule="evenodd" clip-rule="evenodd" d="M160.023 12.02L158.751 13.3497C157.693 12.3106 156.659 11.7921 155.649 11.7921C155.007 11.7921 154.456 12.0063 153.998 12.4349C153.54 12.8634 153.311 13.3643 153.311 13.9357C153.311 14.4415 153.499 14.9229 153.877 15.3808C154.255 15.8475 155.047 16.3954 156.256 17.0245C157.729 17.7974 158.73 18.541 159.258 19.2552C159.777 19.9802 160.037 20.7952 160.037 21.7012C160.037 22.979 159.594 24.0601 158.707 24.9465C157.819 25.8339 156.711 26.2771 155.381 26.2771C154.494 26.2771 153.647 26.0814 152.841 25.6901C152.034 25.2997 151.367 24.7606 150.838 24.0748L152.082 22.6444C153.092 23.7989 154.164 24.3742 155.297 24.3742C156.091 24.3742 156.765 24.1178 157.322 23.6022C157.879 23.0876 158.158 22.4829 158.158 21.7863C158.158 21.2149 157.974 20.7042 157.606 20.2561C157.237 19.8178 156.407 19.265 155.113 18.5977C153.726 17.8728 152.781 17.1585 152.281 16.4531C151.781 15.7477 151.53 14.9425 151.53 14.0365C151.53 12.8546 151.929 11.8723 152.727 11.0906C153.524 10.3088 154.531 9.91846 155.748 9.91846C157.164 9.91846 158.589 10.619 160.023 12.02Z" fill="black"/>
<path fill-rule="evenodd" clip-rule="evenodd" d="M44 10.3186H47.3067V12.2774C47.6644 11.5054 48.1401 10.9194 48.7338 10.5192C49.3274 10.1181 49.9772 9.91748 50.684 9.91748C51.1829 9.91748 51.7059 10.0515 52.2522 10.3186L51.0514 13.6784C50.5989 13.4504 50.2266 13.335 49.9346 13.335C49.341 13.335 48.8392 13.7068 48.4302 14.4513C48.0202 15.1939 47.8153 16.6527 47.8153 18.8267L47.8288 19.5849V25.876H44V10.3186Z" fill="black"/>
<path fill-rule="evenodd" clip-rule="evenodd" d="M48.7341 10.5192C49.3277 10.1181 49.9775 9.91748 50.6842 9.91748C51.1831 9.91748 51.7062 10.0515 52.2525 10.3186L51.0516 13.6784C50.5992 13.4504 50.2269 13.335 49.9349 13.335C49.1867 13.335 48.4535 10.9536 48.7341 10.5192Z" fill="black"/>
<rect x="44" y="22.6553" width="3.82422" height="3.22062" fill="black"/>
<path fill-rule="evenodd" clip-rule="evenodd" d="M89.7754 25.8757H93.6332V10.3184H89.7754V25.8757Z" fill="black"/>
<path fill-rule="evenodd" clip-rule="evenodd" d="M89.7754 8.14419H93.6332V4.66406H89.7754V8.14419Z" fill="black"/>
<path fill-rule="evenodd" clip-rule="evenodd" d="M61.3122 13.7115C60.1201 13.7115 59.129 14.1381 58.3401 14.9913C57.5521 15.8444 57.1576 16.9383 57.1576 18.2728C57.1576 19.6171 57.5588 20.7227 58.3613 21.5905C59.1638 22.4574 60.1529 22.8918 61.3267 22.8918C62.5372 22.8918 63.5418 22.4652 64.3405 21.612C65.1381 20.7589 65.5374 19.6416 65.5374 18.2581C65.5374 16.905 65.1381 15.8092 64.3405 14.9697C63.5418 14.1313 62.5334 13.7115 61.3122 13.7115ZM65.3684 10.509H69.2272V26.0664H65.3684V24.4217C64.6162 25.1467 63.8611 25.6682 63.104 25.9872C62.346 26.3071 61.5251 26.4666 60.6404 26.4666C58.6545 26.4666 56.9373 25.6868 55.489 24.1282C54.0396 22.5706 53.3154 20.6324 53.3154 18.3156C53.3154 15.9137 54.0164 13.9452 55.4184 12.4101C56.8203 10.8759 58.523 10.1079 60.5283 10.1079C61.4497 10.1079 62.315 10.285 63.1243 10.6372C63.9336 10.9894 64.6819 11.5187 65.3684 12.2242V10.509Z" fill="black"/>
<path fill-rule="evenodd" clip-rule="evenodd" d="M60.6404 26.4666C58.6545 26.4666 56.9373 25.6868 55.489 24.1282C54.0396 22.5706 53.3154 20.6324 53.3154 18.3156C56.8681 18.3544 56.8661 17.8993 57.6542 20.5786C59.9993 23.9098 61.0821 21.2878 60.6404 26.4666Z" fill="black"/>
<path d="M65.377 10.5122H69.2275V16.8928L65.377 12.2061V10.5122Z" fill="black"/>
<path fill-rule="evenodd" clip-rule="evenodd" d="M79.7027 13.5216C78.4874 13.5216 77.4799 13.9413 76.6793 14.7798C75.8778 15.6193 75.4775 16.7151 75.4775 18.0682C75.4775 19.4516 75.8778 20.5689 76.6793 21.4221C77.4799 22.2752 78.4874 22.7018 79.7027 22.7018C80.8804 22.7018 81.8714 22.2674 82.6768 21.4006C83.4832 20.5327 83.8854 19.4272 83.8854 18.0828C83.8854 16.7483 83.49 15.6545 82.6981 14.8013C81.9072 13.9482 80.9084 13.5216 79.7027 13.5216ZM75.6472 10.3191V12.0342C76.3443 11.3288 77.0984 10.7995 77.9087 10.4473C78.7189 10.0951 79.5852 9.91797 80.5086 9.91797C82.5148 9.91797 84.2204 10.686 85.6243 12.2201C87.0272 13.7552 87.7292 15.7237 87.7292 18.1257C87.7292 20.4425 87.004 22.3807 85.5537 23.9383C84.1024 25.4969 82.3833 26.2766 80.3955 26.2766C79.5098 26.2766 78.686 26.1172 77.9222 25.7972C77.1593 25.4783 76.4013 24.9568 75.6472 24.2318V31.5668H71.8184V10.3191H75.6472Z" fill="black"/>
<path fill-rule="evenodd" clip-rule="evenodd" d="M85.6248 12.2202C87.0277 13.7553 87.7296 15.7238 87.7296 18.1258C87.7296 20.4426 87.0045 22.3808 85.5542 23.9384C82.8646 21.6815 84.0707 19.5522 83.8805 17.7975C83.6406 15.5844 83.4188 14.2541 85.6248 12.2202Z" fill="black"/>
<rect x="71.8184" y="27.6592" width="3.82649" height="3.90748" fill="black"/>
</svg>
